<svg xmlns="http://www.w3.org/2000/svg" id="Calque_1" data-name="Calque 1" viewBox="0 0 708.66 170.08"><defs><style>      .cls-1 {        fill: #022622;      }      .cls-2 {        fill: #4b7a76;      }    </style></defs><path class="cls-1" d="M563.2,147.88c-1.48-1.38-2.21-3.3-2.21-5.76V51.52c0-2.46,.74-4.38,2.21-5.76,1.47-1.38,3.45-2.07,5.93-2.07s4.33,.72,5.85,2.14c1.52,1.43,2.28,3.32,2.28,5.68v90.61c0,2.36-.76,4.26-2.28,5.68-1.52,1.43-3.48,2.14-5.85,2.14s-4.45-.69-5.93-2.07Z"></path><path class="cls-1" d="M596.83,147.95c-1.48-1.38-2.37-3.3-2.37-5.77v-53.83c0-14,3.44-24.94,11.41-32.83,7.97-7.89,19.04-11.83,33.2-11.83,9.25,0,17.27,1.8,24.05,5.4,6.79,3.6,11.98,8.75,15.57,15.45,3.59,6.71,4.84,14.64,4.84,23.81v53.83c0,2.47-.74,4.39-2.21,5.77-1.48,1.38-2.95,2.07-5.5,2.07s-4.63-.72-6.2-2.14c-1.57-1.43-2.36-3.33-2.36-5.69v-44.24h-56.52v44.24c0,2.37-.79,4.27-2.36,5.69-1.57,1.43-3.01,2.14-5.56,2.14s-4.51-.69-5.98-2.07Zm70.43-65.97v.86c0-6.57-1.65-10.79-6.53-15.92-4.13-4.35-12.41-8.3-21.66-8.3s-17.22,3.82-21.39,7.81c-4.89,4.67-6.94,9.72-6.94,16.42v-.86h56.52Z"></path><path class="cls-1" d="M238.69,67.7c0-4.49-3.64-8.14-8.14-8.14s-8.14,3.64-8.14,8.14c0,.14,.01,.27,.02,.41-.01,.24-.02,.47-.02,.72v37.25c0,9.68-2.69,15.34-7.54,20.43-4.99,5.24-11.84,7.97-20.78,7.97s-15.85-2.63-20.71-7.9c-4.86-5.27-7.29-10.73-7.29-20.5V61.38c0-.39-.07-.76-.17-1.13-.68-3.81-4-6.7-8-6.7-4.26,0-7.75,3.27-8.1,7.43,0,.03,0,.06,0,.09-.02,.2-.03,.4-.03,.61,0,.02,0,.05,0,.07,0,.03,0,.05,0,.08v44.22c0,9,1.78,16.81,5.34,23.42,3.56,6.61,8.66,11.69,15.3,15.23,6.64,3.55,14.38,5.32,23.24,5.32s16.96-1.82,23.74-5.46c6.78-3.64,12.03-8.79,15.73-15.44,3.7-6.66,5.56-14.34,5.56-23.06v-37.45c0-.17-.01-.34-.02-.51,0-.13,.02-.27,.02-.4Z"></path><path class="cls-1" d="M116.06,81.67c-.05,0-.1,0-.15,0-.06,0-.11,0-.17,0h-50.36c-.06,0-.12,0-.19,0-.06,0-.11,0-.16,0-4.49,0-8.14,3.64-8.14,8.14s3.64,8.14,8.14,8.14c.06,0,.12,0,.18,0,.06,0,.11,0,.17,0h50.36c.05,0,.1,0,.16,0,.06,0,.11,0,.17,0,4.49,0,8.14-3.64,8.14-8.14s-3.64-8.14-8.14-8.14Z"></path><path class="cls-1" d="M135.24,134.34c-.17-.07-.34-.13-.52-.19-.07-.02-.13-.04-.2-.06-.15-.04-.31-.09-.47-.12-.6-.14-1.21-.22-1.85-.22-.05,0-.1,0-.15,0-.87-.03-1.8,0-2.79,0h-48.03c-6.63,0-12.34-1.51-17.3-4.26-5.44-3.01-10.56-8.08-13.55-12.9-2.75-4.41-5.71-12.8-6.26-19.76-.65-8.21-.4-9.73,1.14-15.88,1.77-7.06,3.08-8.82,4.92-12.13,8.01-14.91,28.45-28.68,46.81-32.39-3.14-.78-6.94-.81-9.47-.74-1.5,.04-5.24-.11-6.73,0-10.15,.77-21.36,4.36-27.72,8.93-7.65,5.49-13.91,13.17-19.27,20.96-6.37,9.26-9.17,22.07-8.15,32.66,1.3,13.59,4.15,18.87,8.7,26.89,4.4,7.76,10.81,13.48,18.81,18.3,8.02,4.83,15.88,6.59,28.07,6.59h49.18c.34,0,.62,.01,.98,0,.29,.01,.54,0,.81,0,4.49,0,8.14-3.64,8.14-8.14,0-3.42-2.11-6.34-5.1-7.55Z"></path><path class="cls-2" d="M330.53,15.5s-84.43,19.12-132.15,12.78c-54.22-7.2-63.86-7.39-98.27-2.13-24.27,3.71-48.03,18.48-46.37,17.84,5.48-2.1,14.03-3.44,20.56-4.61,20.64-3.72,42.81-5.21,67.49-1.23,18.55,2.99,41.47,10.46,79.98,9.93,20.58-.28,70.54-10.02,108.77-32.59Z"></path><path class="cls-1" d="M308.86,97.94c11.06,0,21.09-4.03,27.31-9.74,6.01-5.52,8.43-13.79,8.43-24.09,0-9.69-4.93-17.92-11.3-22.7-2.75-2.07-7.17-4.3-10.89-5.47-.05-.02-.1-.04-.15-.05-.02,0-.04-.01-.06-.02-.02,0-.04,0-.06,0-.67-.19-1.38-.3-2.12-.3h-.33c-.65,0-1.27,.09-1.88,.24-.05,.01-.1,.02-.15,.04-.18,.05-.35,.1-.53,.17-.04,.02-.09,.03-.13,.05-2.9,1.09-4.97,3.88-4.97,7.16,0,1.51,.44,2.91,1.2,4.1,.15,.24,.32,.47,.5,.7,.03,.04,.06,.07,.09,.11,.19,.23,.4,.45,.63,.66,.18,.17,.37,.33,.57,.48,.04,.03,.07,.06,.11,.09,.03,.02,.06,.03,.08,.05,.33,.24,.67,.45,1.04,.63,1.11,.6,2.36,1.12,3.53,1.73,3.65,1.92,8.49,5.29,8.49,12.31s-2.01,11.77-5.81,14.7c-3.8,2.94-10.21,3.2-19.45,3.2h-30.57v-4.39c0-1.48-.08-.46-.08-2.79-.04-4.45,.02-7.98-.13-11.49,.01-.18-.05-.83-.05-1.02,0-4.49-3.09-8.14-7.59-8.14s-7.9,3.27-8.14,8.04c0,.03,0,.15,0,.18-.18,2.94-.28,6.39-.33,10.68v69.19c0,2.41,.74,4.31,2.24,5.7,1.49,1.39,3.54,2.09,6.13,2.09s4.55-.7,6.13-2.09c1.59-1.39,1.83-3.3,1.83-5.7v-44.29h16.86s31.27,47.41,31.27,47.41c2.27,3.14,4.22,4.15,5.99,4.47,.58,.13,1.18,.2,1.79,.2,.33,0,.65-.03,.97-.06,.78-.04,1.44-.21,2.11-.55,2.96-1.22,5.05-4.13,5.05-7.53,0-.9-.15-1.77-.43-2.58-.08-.33-.24-.71-.52-1.23-.05-.1-.11-.19-.17-.29-.05-.09-.1-.17-.16-.28l-.1-.14s-.02-.04-.04-.05l-26.24-39.37Z"></path><path class="cls-1" d="M544.1,54.24s0,0,0-.01c.23-.75,.36-1.55,.36-2.38,0-4.49-3.64-8.14-8.14-8.14-1.81,0-3.48,.6-4.83,1.6-.02,.02-.05,.03-.07,.05-.02,.01-.03,.03-.05,.04-1.23,.95-2.18,2.24-2.71,3.73-.18,.42-.36,.87-.51,1.36l-17.59,65.67c-2.07,6.69-4.52,11.86-6.24,14.67-1.72,2.8-3.63,3.64-5.6,3.64-2.07,0-4.25-1.38-5.97-4.19-1.72-2.8-3.94-7.55-5.91-14.24l-17.7-65.55c-.1-.31-.21-.61-.32-.89-.98-3.39-4.1-5.88-7.81-5.88-4.49,0-8.14,3.64-8.14,8.14,0,.95,.17,1.86,.47,2.71,0,.02,0,.04,.01,.06l17.77,64.93c3.34,10.73,7.13,18.47,11.36,23.24,4.23,4.77,9.64,7.16,16.23,7.16s11.83-2.34,16.01-7.01c4.18-4.67,7.99-12.47,11.44-23.39l17.93-65.27s0,0,0,0v-.02Z"></path><path class="cls-1" d="M438.82,133.84s-.07,0-.1-.02c-.18-.02-.36-.04-.54-.05-.11,0-.21-.03-.33-.03h-53.67c-2.17,0-4.38-.79-5.56-2.2-1.18-1.42-1.77-3.34-1.77-5.77v-27.83h44.25s.08,0,.12,0c.04,0,.08,0,.12,0,1.8,0,3.46-.58,4.8-1.55,.31-.21,.6-.42,.86-.64,.22-.18,.41-.43,.6-.7,1.17-1.38,1.87-3.16,1.87-5.1,0-4.41-3.64-7.99-8.14-7.99-.03,0-.06,0-.09,0-.05,0-.09,0-.14,0l-44.25,.02v-14.66c0-2.43,.59-4.35,1.77-5.77,1.18-1.42,3.4-2.12,5.56-2.12l44.8-.07c.19,.01,.37,.03,.56,.03,4.49,0,8.14-3.5,8.14-7.81s-3.64-7.81-8.14-7.81c-.11,0-.19,0-.3,0-.03,0-.07,0-.09,0,0,0,0,0-.01,0h-47.32c-6.69,0-11.9,1.87-15.64,5.62-3.74,3.74-5.61,8.9-5.61,15.48v63.59c0,6.78,1.94,12.07,5.83,15.86,3.89,3.79,9.32,5.7,16.31,5.7h54.6c1.31,0,2.39-.24,3.29-.61,3.05-1.17,5.23-4.06,5.23-7.53,0-4.11-3.05-7.49-7-8.05Z"></path></svg>